# xmcd CD database file
#
# Track frame offsets:
#	183
#	16108
#	56383
#	142278
#	157395
#	173175
#	194283
#	221515
#	238300
#
# Disc length: 4461 seconds
#
# Revision: 0
# Processed by: cddbd v1.5.1PL0 Copyright (c) Steve Scherf et al.
# Submitted via: CDex 1.50Beta5
#
DISCID=85116b09
DTITLE=Edgar&Johnny Winter - Tabacco Road
DYEAR=1900
DGENRE=Blues
TTITLE0=Keep Playing That Rock'n Roll
TTITLE1=Frankenstein
TTITLE2=Tabacco Road
TTITLE3=Rock'n Roll Boogie Woogie Blues
TTITLE4=Bad Luck Situation
TTITLE5=Jumping Jack Flash
TTITLE6=Johnny B. Gooode
TTITLE7=Long Tall Sally
TTITLE8=Whole Lota Shakin' Going on
EXTD=
EXTT0=
EXTT1=
EXTT2=
EXTT3=
EXTT4=
EXTT5=
EXTT6=
EXTT7=
EXTT8=
PLAYORDER=
